<svg width="31" height="30" viewBox="0 0 31 30" fill="none" xmlns="http://www.w3.org/2000/svg">
<path d="M3.49992 0.333252C2.02659 0.333252 0.833252 1.52659 0.833252 2.99992V26.9999C0.833252 28.4733 2.02659 29.6666 3.49992 29.6666H27.4999C28.9733 29.6666 30.1666 28.4733 30.1666 26.9999V2.99992C30.1666 1.52659 28.9733 0.333252 27.4999 0.333252H3.49992ZM18.8333 9.66659H22.2421C22.6101 9.66659 22.9088 9.96525 22.9088 10.3333C22.9088 10.7013 22.6101 10.9999 22.2421 10.9999H18.8333C18.4653 10.9999 18.1666 10.7013 18.1666 10.3333C18.1666 9.96525 18.4653 9.66659 18.8333 9.66659ZM7.39315 10.1796H11.1067C13.2987 10.1796 14.6067 11.252 14.6067 12.9973C14.6067 14.1946 13.7211 15.2394 12.5624 15.4114V15.552C14.0584 15.6613 15.1458 16.7887 15.1458 18.2447C15.1471 20.2247 13.6515 21.4791 11.2395 21.4791H7.39315C6.71581 21.4791 6.16659 20.9299 6.16659 20.2525V11.4062C6.16659 10.7288 6.71581 10.1796 7.39315 10.1796ZM8.53117 11.9869V14.8619H10.3072C11.5845 14.8632 12.2812 14.3376 12.2812 13.4296C12.2812 12.5296 11.6331 11.9869 10.5051 11.9869H8.53117ZM20.7838 12.6536C23.3291 12.6536 24.8306 14.2755 24.8306 17.0155V17.7109H18.9062V17.828C18.9368 19.112 19.6895 19.9114 20.8801 19.9114C21.7801 19.9114 22.3979 19.5914 22.6405 19.0208H24.7629C24.4189 20.6501 22.9297 21.6666 20.815 21.6666C18.1844 21.6666 16.6353 20.0057 16.6353 17.203C16.6353 14.3924 18.2158 12.6536 20.7838 12.6536ZM20.7942 14.401C19.7369 14.401 18.9913 15.1351 18.914 16.2551H22.5937C22.5457 15.1125 21.8582 14.401 20.7942 14.401ZM8.53117 16.4609V19.6718H10.6379C12.0006 19.6718 12.7369 19.0976 12.7369 18.0416C12.7369 17.0069 11.9766 16.4609 10.5833 16.4609H8.53117Z" fill="white"/>
</svg>
