<svg width="35" height="34" viewBox="0 0 35 34" fill="none" xmlns="http://www.w3.org/2000/svg">
<path d="M30.3002 0.199951H4.7002C2.4922 0.199951 0.700195 1.99195 0.700195 4.19995V29.7999C0.700195 32.0079 2.4922 33.7999 4.7002 33.7999H30.3002C32.5082 33.7999 34.3002 32.0079 34.3002 29.7999V4.19995C34.3002 1.99195 32.5082 0.199951 30.3002 0.199951ZM27.1002 12.2H25.5002C23.7882 12.2 23.1002 12.6 23.1002 13.8V16.2H27.1002L26.3002 20.1999H23.1002V32.1999H19.1002V20.1999H15.9002V16.2H19.1002V13.8C19.1002 10.6 20.7002 8.19995 23.9002 8.19995C26.2202 8.19995 27.1002 8.99995 27.1002 8.99995V12.2Z" fill="white"/>
</svg>
