<svg width="33" height="32" viewBox="0 0 33 32" fill="none" xmlns="http://www.w3.org/2000/svg">
<path d="M9.83073 0C4.6854 0 0.5 4.18927 0.5 9.33594V22.6693C0.5 27.8146 4.68927 32 9.83594 32H23.1693C28.3146 32 32.5 27.8107 32.5 22.6641V9.33073C32.5 4.1854 28.3107 0 23.1641 0H9.83073ZM25.8333 5.33333C26.5693 5.33333 27.1667 5.93067 27.1667 6.66667C27.1667 7.40267 26.5693 8 25.8333 8C25.0973 8 24.5 7.40267 24.5 6.66667C24.5 5.93067 25.0973 5.33333 25.8333 5.33333ZM16.5 8C20.912 8 24.5 11.588 24.5 16C24.5 20.412 20.912 24 16.5 24C12.088 24 8.5 20.412 8.5 16C8.5 11.588 12.088 8 16.5 8ZM16.5 10.6667C15.0855 10.6667 13.729 11.2286 12.7288 12.2288C11.7286 13.229 11.1667 14.5855 11.1667 16C11.1667 17.4145 11.7286 18.771 12.7288 19.7712C13.729 20.7714 15.0855 21.3333 16.5 21.3333C17.9145 21.3333 19.271 20.7714 20.2712 19.7712C21.2714 18.771 21.8333 17.4145 21.8333 16C21.8333 14.5855 21.2714 13.229 20.2712 12.2288C19.271 11.2286 17.9145 10.6667 16.5 10.6667Z" fill="white"/>
</svg>
