<svg width="33" height="33" viewBox="0 0 33 33" fill="none" xmlns="http://www.w3.org/2000/svg">
<path d="M16.25 0.5C7.29492 0.5 0 7.79492 0 16.75C0 25.7051 7.29492 33 16.25 33C25.2051 33 32.5 25.7051 32.5 16.75C32.5 7.79492 25.2051 0.5 16.25 0.5ZM16.25 3C19.5117 3 22.5 4.13281 24.8535 6.02734C23.6621 7.49219 21.4648 9.5332 17.7832 10.8711C15.7813 7.25781 14.1113 4.94336 12.9492 3.41016C14.0039 3.15625 15.1074 3 16.25 3ZM10.4688 4.28906C11.4453 5.54883 13.2129 7.91211 15.3125 11.6133C9.91211 13.0293 5.03906 13.1172 3.00781 13.0586C4.0918 9.15234 6.8457 5.95898 10.4688 4.28906ZM26.6504 7.76562C28.7305 10.1777 30 13.3125 30 16.75C30 17.2676 29.9707 17.7656 29.9121 18.2637C29.4629 18.2051 29.1211 18.1465 28.5449 18.0977C26.6113 17.9512 24.043 17.9512 21.2695 18.3613C20.5469 16.4766 19.7461 14.7383 18.9258 13.1074C22.793 11.6328 25.2344 9.45508 26.6504 7.76562ZM16.5039 13.8789C17.2949 15.4219 18.0566 17.082 18.7695 18.8594C15.4785 19.8359 12.4902 22.0625 10.1953 24.1328C8.96484 25.2266 7.95898 26.2715 7.20703 27.0918C4.32617 24.5723 2.5 20.8809 2.5 16.75C2.5 16.3398 2.5293 15.9492 2.55859 15.5488C4.33594 15.627 10.0293 15.6758 16.5039 13.8789ZM24.7754 20.5195C26.6992 20.4512 28.2129 20.5781 29.4141 20.7148C28.5059 23.7715 26.5625 26.3691 23.9941 28.1172C23.584 25.5488 22.9395 23.0781 22.168 20.7539C23.0664 20.6367 23.9453 20.5586 24.7754 20.5195ZM19.668 21.2129C20.5566 23.7812 21.2598 26.5254 21.6602 29.3965C20 30.0996 18.1738 30.5 16.25 30.5C13.6816 30.5 11.2988 29.7871 9.23828 28.5762C9.93164 27.834 10.791 26.9355 11.8555 25.9883C14.0625 24.0059 16.9434 21.9844 19.668 21.2129Z" fill="white"/>
</svg>
